HIERARCHY
ROOT hip
{
  OFFSET 0 0 0
  CHANNELS 6 Xposition Yposition Zposition Zrotation Yrotation Xrotation
  JOINT abdomen
  {
    OFFSET 0 20.6881 -0.73152
    CHANNELS 3 Zrotation Xrotation Yrotation
    JOINT chest
    {
      OFFSET 0 11.7043 -0.48768
      CHANNELS 3 Zrotation Xrotation Yrotation
      JOINT neck
      {
        OFFSET 0 22.1894 -2.19456
        CHANNELS 3 Zrotation Xrotation Yrotation
        JOINT head
        {
          OFFSET -0.24384 7.07133 1.2192
          CHANNELS 3 Zrotation Xrotation Yrotation
          JOINT leftEye
          {
            OFFSET 4.14528 8.04674 8.04672
            CHANNELS 3 Zrotation Xrotation Yrotation
            End Site
            {
              OFFSET 1 0 0
            }
          }
          JOINT rightEye
          {
            OFFSET -3.6576 8.04674 8.04672
            CHANNELS 3 Zrotation Xrotation Yrotation
            End Site
            {
              OFFSET 1 0 0
            }
          }
        }
      }
      JOINT rCollar
      {
        OFFSET -2.68224 19.2634 -4.8768
        CHANNELS 3 Zrotation Xrotation Yrotation
        JOINT rShldr
        {
          OFFSET -8.77824 -1.95073 1.46304
          CHANNELS 3 Zrotation Xrotation Yrotation
          JOINT rForeArm
          {
            OFFSET -28.1742 -1.7115 0.48768
            CHANNELS 3 Zrotation Xrotation Yrotation
            JOINT rHand
            {
              OFFSET -22.5879 0.773209 7.07136
              CHANNELS 3 Zrotation Xrotation Yrotation
              JOINT rThumb1
              {
                OFFSET -1.2192 -0.487915 3.41376
                CHANNELS 3 Zrotation Xrotation Yrotation
                JOINT rThumb2
                {
                  OFFSET -3.37035 -0.52449 3.41376
                  CHANNELS 3 Zrotation Xrotation Yrotation
                  End Site
                  {
                    OFFSET -1.78271 -1.18214 1.43049
                  }
                }
              }
              JOINT rIndex1
              {
                OFFSET -7.75947 0.938293 5.60832
                CHANNELS 3 Zrotation Xrotation Yrotation
                JOINT rIndex2
                {
                  OFFSET -2.54057 -0.884171 1.56538
                  CHANNELS 3 Zrotation Xrotation Yrotation
                  End Site
                  {
                    OFFSET -1.62519 -0.234802 1.16502
                  }
                }
              }
              JOINT rMid1
              {
                OFFSET -8.24714 1.18213 3.41376
                CHANNELS 3 Zrotation Xrotation Yrotation
                JOINT rMid2
                {
                  OFFSET -3.10165 -0.590103 1.0647
                  CHANNELS 3 Zrotation Xrotation Yrotation
                  End Site
                  {
                    OFFSET -2.48547 -0.328903 0.83742
                  }
                }
              }
              JOINT rRing1
              {
                OFFSET -8.82822 0.546677 1.51678
                CHANNELS 3 Zrotation Xrotation Yrotation
                JOINT rRing2
                {
                  OFFSET -2.60934 -0.819778 -0.0198488
                  CHANNELS 3 Zrotation Xrotation Yrotation
                  End Site
                  {
                    OFFSET -2.33842 -0.294052 0.168128
                  }
                }
              }
              JOINT rPinky1
              {
                OFFSET -8.27202 -0.0477905 -0.4584
                CHANNELS 3 Zrotation Xrotation Yrotation
                JOINT rPinky2
                {
                  OFFSET -1.82734 -0.647385 -0.700984
                  CHANNELS 3 Zrotation Xrotation Yrotation
                  End Site
                  {
                    OFFSET -1.69225 -0.51767 -0.607171
                  }
                }
              }
            }
          }
        }
      }
      JOINT lCollar
      {
        OFFSET 2.68224 19.2634 -4.8768
        CHANNELS 3 Zrotation Xrotation Yrotation
        JOINT lShldr
        {
          OFFSET 8.77824 -1.95073 1.46304
          CHANNELS 3 Zrotation Xrotation Yrotation
          JOINT lForeArm
          {
            OFFSET 28.1742 -1.7115 0.48768
            CHANNELS 3 Zrotation Xrotation Yrotation
            JOINT lHand
            {
              OFFSET 22.5879 0.773209 7.07136
              CHANNELS 3 Zrotation Xrotation Yrotation
              JOINT lThumb1
              {
                OFFSET 1.2192 -0.487915 3.41376
                CHANNELS 3 Zrotation Xrotation Yrotation
                JOINT lThumb2
                {
                  OFFSET 3.37035 -0.52449 3.41376
                  CHANNELS 3 Zrotation Xrotation Yrotation
                  End Site
                  {
                    OFFSET 1.78271 -1.18214 1.43049
                  }
                }
              }
              JOINT lIndex1
              {
                OFFSET 7.75947 0.938293 5.60832
                CHANNELS 3 Zrotation Xrotation Yrotation
                JOINT lIndex2
                {
                  OFFSET 2.54057 -0.884171 1.56538
                  CHANNELS 3 Zrotation Xrotation Yrotation
                  End Site
                  {
                    OFFSET 1.62519 -0.234802 1.16502
                  }
                }
              }
              JOINT lMid1
              {
                OFFSET 8.24714 1.18213 3.41376
                CHANNELS 3 Zrotation Xrotation Yrotation
                JOINT lMid2
                {
                  OFFSET 3.10165 -0.590103 1.0647
                  CHANNELS 3 Zrotation Xrotation Yrotation
                  End Site
                  {
                    OFFSET 2.48547 -0.328903 0.83742
                  }
                }
              }
              JOINT lRing1
              {
                OFFSET 8.82822 0.546677 1.51678
                CHANNELS 3 Zrotation Xrotation Yrotation
                JOINT lRing2
                {
                  OFFSET 2.60934 -0.819778 -0.0198488
                  CHANNELS 3 Zrotation Xrotation Yrotation
                  End Site
                  {
                    OFFSET 2.33842 -0.294052 0.168128
                  }
                }
              }
              JOINT lPinky1
              {
                OFFSET 8.27202 -0.0477905 -0.4584
                CHANNELS 3 Zrotation Xrotation Yrotation
                JOINT lPinky2
                {
                  OFFSET 1.82734 -0.647385 -0.700984
                  CHANNELS 3 Zrotation Xrotation Yrotation
                  End Site
                  {
                    OFFSET 1.69225 -0.51767 -0.607171
                  }
                }
              }
            }
          }
        }
      }
    }
  }
  JOINT rButtock
  {
    OFFSET -8.77824 4.35084 1.2192
    CHANNELS 3 Zrotation Xrotation Yrotation
    JOINT rThigh
    {
      OFFSET 0 -1.70687 -2.19456
      CHANNELS 3 Zrotation Xrotation Yrotation
      JOINT rShin
      {
        OFFSET 0 -36.8199 0.73152
        CHANNELS 3 Zrotation Xrotation Yrotation
        JOINT rFoot
        {
          OFFSET 0.73152 -45.1104 -5.12064
          CHANNELS 3 Zrotation Xrotation Yrotation
          End Site
          {
            OFFSET -1.1221 -3.69964 12.103
          }
        }
      }
    }
  }
  JOINT lButtock
  {
    OFFSET 8.77824 4.35084 1.2192
    CHANNELS 3 Zrotation Xrotation Yrotation
    JOINT lThigh
    {
      OFFSET 0 -1.70687 -2.19456
      CHANNELS 3 Zrotation Xrotation Yrotation
      JOINT lShin
      {
        OFFSET 0 -36.8199 0.73152
        CHANNELS 3 Zrotation Xrotation Yrotation
        JOINT lFoot
        {
          OFFSET -0.73152 -45.1104 -5.12064
          CHANNELS 3 Zrotation Xrotation Yrotation
          End Site
          {
            OFFSET 1.1221 -3.69964 12.103
          }
        }
      }
    }
  }
}
MOTION
Frames:	8
Frame Time:	0.00833333
0.0 0.0 0.0 0.0 0.0 0.0 0.0 0.0 0.0 0.0 0.0 0.0 0.0 0.0 0.0 0.0 0.0 0.0 0.0 0.0 0.0 0.0 0.0 0.0 0.0 0.0 0.0 0.0 0.0 0.0 0.0 0.0 0.0 0.0 0.0 0.0 0.0 0.0 0.0 0.0 0.0 0.0 0.0 0.0 0.0 0.0 0.0 0.0 0.0 0.0 0.0 0.0 0.0 0.0 0.0 0.0 0.0 0.0 0.0 0.0 0.0 0.0 0.0 0.0 0.0 0.0 0.0 0.0 0.0 0.0 0.0 0.0 0.0 0.0 0.0 0.0 0.0 0.0 0.0 0.0 0.0 0.0 0.0 0.0 0.0 0.0 0.0 0.0 0.0 0.0 0.0 0.0 0.0 0.0 0.0 0.0 0.0 0.0 0.0 0.0 0.0 0.0 0.0 0.0 0.0 0.0 0.0 0.0 0.0 0.0 0.0 0.0 0.0 0.0 0.0 0.0 0.0 0.0 0.0 0.0 0.0 0.0 0.0 0.0 0.0 0.0 0.0 0.0 0.0 0.0 0.0 0.0
144.805 83.4268 1.84705 0.0 -0.0 0.0 -0.0 -4.771896 -180.0 0.0 -4.771896 180.0 -7.787251 12.560814 -93.912255 12.009496 8.620009 93.862169 -0.0 -0.0 0.0 -0.0 -0.0 0.0 -159.220516 -48.028485 170.415257 30.244758 -44.445512 25.972225 38.265989 57.519873 -50.976443 -156.948924 57.227605 132.538265 -93.743665 37.963835 53.548561 -45.862089 -3.938631 42.432823 -46.208543 39.652969 36.318179 168.016654 -50.471954 112.987584 -82.840589 61.110826 74.532293 -82.986263 67.239476 75.07508 -145.119466 0.267775 -179.212461 -14.327808 -72.044074 -45.901332 -29.627384 -40.969672 -28.61639 -128.597718 -32.115998 -126.954212 159.220516 -48.028485 -170.415257 -3.627952 14.044815 -22.132243 -22.516695 6.093048 20.008286 149.343358 63.013592 -126.15874 -11.509165 -11.48706 0.622342 93.585813 25.126627 -82.704628 -18.123729 -32.540565 5.968271 0.550622 7.306657 -6.317915 -23.903801 -61.333833 -1.399383 165.691924 -6.775231 -140.60713 0.006679 3.473835 -1.091901 166.770213 -34.409152 -176.631437 -4.595084 13.36016 -4.155384 -67.953869 85.52145 32.27981 -180.0 75.749642 -0.0 -180.0 75.749642 -0.0 -3.969033 2.122794 -40.0054 -57.244284 -43.269749 38.677388 -180.0 75.749642 -0.0 -180.0 75.749642 -0.0 -6.817693 3.579341 -71.6195 9.304453 18.527442 66.60518
144.832 83.3513 1.49228 0.0 -0.0 -0.0 -0.0 -4.771896 -180.0 -0.0 -4.771896 180.0 -8.133567 10.422116 -81.502261 11.496437 6.51512 81.58876 -0.0 -0.0 0.0 -0.0 -0.0 0.0 -155.417258 -2.951435 161.718542 17.824299 2.241168 16.283611 2.496307 -27.762662 -33.900892 167.034881 -26.031648 142.224367 -5.433768 5.264911 1.077842 -159.100492 -66.561552 112.901326 -127.853541 18.70338 107.507054 -160.275137 -25.824986 125.439936 -154.142656 11.63468 139.428942 -159.980392 -4.222649 144.029783 -145.118942 0.185529 -179.186624 -67.99214 -77.904252 -99.860429 -113.837232 -39.284327 -111.847609 4.822241 0.717515 1.000502 143.620413 38.233348 -148.080496 -24.952448 -24.92584 -6.720507 8.661204 0.534697 26.377843 -132.42417 -63.842954 -114.523275 6.581133 6.344846 -1.36571 -45.231638 -61.095278 11.848022 33.797169 34.48579 -25.494234 10.273059 19.044711 4.40344 173.037515 -44.087847 -144.930636 3.656748 21.293389 -6.911157 71.925376 72.974006 -89.771887 -84.025903 86.29563 75.463636 1.203484 -3.047547 1.116064 0.87071 -2.611447 0.675941 -180.0 75.749642 -0.0 -180.0 73.473292 -180.0 4.801803 -5.525369 128.008574 125.180587 13.427629 -34.834412 -180.0 75.749642 -0.0 -180.0 73.473292 -180.0 7.166984 -6.598021 101.486098 150.894686 -29.037097 -100.386202
144.875 83.3222 1.3591 0.0 -0.0 0.0 -0.0 -4.771896 -180.0 0.0 -4.771896 180.0 -7.787251 12.560814 -93.912255 12.009496 8.620009 93.862169 -0.0 -0.0 0.0 -0.0 -0.0 0.0 -159.220516 -48.028485 170.415257 30.244758 -44.445512 25.972225 38.265989 57.519873 -50.976443 -156.948924 57.227605 132.538265 8.270536 -8.263169 -0.681995 30.098827 -64.827142 -24.609259 -138.493513 4.896353 114.8648 -178.914732 -59.440949 113.417456 68.983989 -80.15399 40.578188 -168.149521 -16.299444 140.799899 -145.101024 -1.437309 -178.676528 -140.825014 -31.702465 -174.203571 -78.112108 -51.505491 -76.560275 10.693277 26.146275 7.794166 159.220516 -48.028485 -170.415257 -3.627952 14.044815 -22.132243 -22.516695 6.093048 20.008286 149.343358 63.013592 -126.15874 78.030619 38.689342 -42.41267 -173.672019 -48.148297 -75.323255 19.170572 24.114561 -13.380841 2.191704 2.568652 5.334188 160.09819 -4.901163 -142.968881 39.90647 58.706182 -37.160408 -0.004873 1.771387 -0.556475 -0.904259 -26.574405 3.487584 157.329919 57.246404 150.511839 -2.187562 -1.997991 4.120314 -180.0 75.749642 -0.0 -180.0 75.749642 -0.0 -3.969033 2.122794 -40.0054 -57.244284 -43.269749 38.677388 -180.0 75.749642 -0.0 -180.0 75.749642 -0.0 -6.817693 3.579341 -71.6195 144.471273 19.931118 -76.58575
144.85 83.3276 1.44528 0.0 -0.0 -0.0 -0.0 0.0 -0.0 -0.0 -0.0 0.0 1.115182 19.714459 -163.791626 6.835951 18.56806 162.479082 0.0 -0.0 -0.0 0.0 -0.0 -0.0 -143.620413 38.233348 148.080496 -153.748773 -14.787283 171.174154 -4.625952 40.004704 4.174796 2.283037 -7.197884 0.390594 51.059793 -41.203951 12.856726 -152.055473 -41.819025 133.818695 10.281995 -18.182542 -4.585706 -71.350735 44.552105 48.538186 -0.057679 0.167876 0.032027 14.003809 -40.499019 -0.405486 -145.118942 0.185466 -179.186604 -34.380309 87.439048 57.873318 -126.797849 -26.619602 -124.512652 16.854365 41.410104 8.552493 150.168677 21.535282 -155.275413 -23.236335 -10.328838 -10.835384 -0.638125 6.546287 32.69523 -165.100398 -30.48858 -141.151721 85.829417 38.630721 -47.955432 -17.141224 -24.548937 -22.110399 16.401674 21.464688 -11.217342 165.501701 -0.389585 -113.791096 89.835461 60.702148 -81.262754 5.589376 26.83084 -2.889335 145.118942 0.185529 179.186624 -22.02391 22.92053 6.415016 86.000836 -50.498128 84.371009 -30.314703 82.014889 -7.674372 -180.0 75.749642 -0.0 -180.0 73.473292 -180.0 4.128173 -4.565677 138.175617 142.562047 -10.395149 -35.837866 -180.0 75.749642 -0.0 -180.0 73.473292 -180.0 -4.128173 -4.565677 -138.175617 -142.562047 -10.395149 35.837866
144.832 83.3307 1.51363 0.0 -0.0 -0.0 -0.0 -4.771896 -180.0 -0.0 -4.771896 180.0 -8.133567 10.422116 -81.502261 11.496437 6.51512 81.58876 -0.0 -0.0 0.0 -0.0 -0.0 0.0 -155.417258 -2.951435 161.718542 17.824299 2.241168 16.283611 2.496307 -27.762662 -33.900892 167.034881 -26.031648 142.224367 -7.351256 7.062242 1.570266 -100.169134 8.2697 91.873256 -166.821797 -43.973781 122.061691 23.04083 1.04975 -5.691093 -152.826618 14.79318 138.51447 -127.57392 52.406396 120.025696 -75.673382 -72.116249 -92.828895 -153.079226 -15.588027 167.698997 0.321363 0.844247 0.29644 -24.931549 -39.851495 -23.192917 143.620413 38.233348 -148.080496 -24.952448 -24.92584 -6.720507 8.661204 0.534697 26.377843 -132.42417 -63.842954 -114.523275 6.581133 6.344846 -1.36571 -45.231638 -61.095278 11.848022 33.797169 34.48579 -25.494234 -92.450619 -69.956763 -49.490618 173.037515 -44.087847 -144.930636 1.529017 16.9576 -5.613821 71.925376 72.974006 -89.771887 -27.860339 77.292061 21.033487 1.203484 -3.047547 1.116064 0.87071 -2.611447 0.675941 -180.0 75.749642 -0.0 -180.0 73.473292 -180.0 4.801803 -5.525369 128.008574 107.006259 25.0793 -22.391737 -180.0 75.749642 -0.0 -180.0 73.473292 -180.0 7.166984 -6.598021 101.486098 79.217502 69.217804 -6.421861
144.823 83.3155 1.5953499999999998 0.0 -0.0 -0.0 -0.0 -4.771896 -180.0 -0.0 -4.771896 180.0 -8.133567 10.422116 -81.502261 11.496437 6.51512 81.58876 0.0 -0.0 -0.0 0.0 -0.0 -0.0 -155.417258 -2.951435 161.718542 17.824299 2.241168 16.283611 2.496307 -27.762662 -33.900892 167.034881 -26.031648 142.224367 -7.351256 7.062242 1.570266 -100.169134 8.2697 91.873256 -166.821797 -43.973781 122.061691 23.04083 1.04975 -5.691093 -152.826618 14.79318 138.51447 -127.57392 52.406396 120.025696 -75.673382 -72.116249 -92.828895 -153.079226 -15.588027 167.698997 0.321363 0.844247 0.29644 -24.931549 -39.851495 -23.192917 143.620413 38.233348 -148.080496 -23.162799 -12.534945 -6.905009 62.886455 -77.940752 72.919827 -12.591842 -33.876583 -5.060871 -83.25393 -50.258079 -33.616048 160.343188 -32.59022 -129.154165 33.797169 34.48579 -25.494234 -114.829134 -69.241659 -69.582105 159.365121 -2.685504 -142.597465 152.909973 15.097715 -139.940862 132.481743 54.102976 -155.533585 -2.796516 -32.641258 22.709795 12.374441 -24.158049 11.75793 86.543753 -54.989477 84.447639 -180.0 75.749642 -0.0 -180.0 73.473292 -180.0 4.801803 -5.525369 128.008574 -153.434393 -60.326872 -29.091834 -180.0 75.749642 -0.0 -180.0 73.473292 -180.0 7.166984 -6.598021 101.486098 79.217502 69.217804 -6.421861
144.806 83.2947 1.6743899999999998 0.0 -0.0 -0.0 -0.0 -4.771896 -180.0 -0.0 -4.771896 180.0 -8.133567 10.422116 -81.502261 11.496437 6.51512 81.58876 0.0 -0.0 -0.0 0.0 -0.0 -0.0 -155.417258 -2.951435 161.718542 17.824299 2.241168 16.283611 2.496307 -27.762662 -33.900892 167.034881 -26.031648 142.224367 -169.319662 -7.000857 89.921973 34.67414 -64.598999 28.650085 -152.105085 -18.556554 121.367907 -125.711473 30.918045 110.435579 -161.518715 -9.304265 143.625478 -15.517158 42.536833 15.312306 0.004875 1.770451 0.556181 0.932008 -33.480069 -4.340755 12.508954 42.442328 10.451256 -75.938876 -52.956269 -73.162637 143.620413 38.233348 -148.080496 -24.952448 -24.92584 -6.720507 8.742044 0.023485 26.360541 -131.539455 -64.185915 -113.711087 -81.971691 -50.091534 -32.722881 137.375766 16.569072 -102.397948 33.797169 34.48579 -25.494234 -70.093818 -67.795387 -29.573349 160.673322 -6.667841 -143.245105 167.187736 -26.248394 -143.955503 145.118942 0.185466 179.186604 139.165864 -38.30219 172.080115 -39.9956 85.641033 0.907629 148.539983 11.441177 140.125638 -180.0 75.749642 -0.0 -180.0 73.473292 -180.0 5.437038 -7.028674 113.820567 130.841393 23.765861 -44.705349 -180.0 75.749642 -0.0 -180.0 73.473292 -180.0 7.44638 -7.637196 92.130336 5.486209 9.576597 87.464856
